<svg width="83" height="82" viewBox="0 0 83 82" fill="none" xmlns="http://www.w3.org/2000/svg">
<g clip-path="url(#clip0_1071_6302)">
<path d="M41.334 82C63.9777 82 82.334 63.6437 82.334 41C82.334 18.3563 63.9777 -3.90796e-08 41.334 -2.51755e-08C18.6903 -1.12715e-08 0.333984 18.3563 0.333984 41C0.333984 63.6437 18.6903 82 41.334 82Z" fill="#4793FF"/>
<path d="M41.334 0C63.9415 -1.38818e-08 82.334 18.3925 82.334 41C82.334 63.6075 63.9415 82 41.334 82L41.334 0Z" fill="#5E69E2"/>
<path d="M41.3342 71.7073C58.2933 71.7073 72.0414 57.9592 72.0414 41C72.0414 24.0409 58.2933 10.2928 41.3342 10.2928C24.3751 10.2928 10.627 24.0409 10.627 41C10.627 57.9592 24.3751 71.7073 41.3342 71.7073Z" fill="#2EBEEF"/>
<path d="M41.334 10.2928C58.266 10.2928 72.0412 24.068 72.0412 41C72.0412 57.9321 58.266 71.7073 41.334 71.7073L41.334 10.2928Z" fill="#4793FF"/>
<path d="M39.3347 20.3685L26.4689 39.6674C26.2058 40.062 26.0654 40.5257 26.0654 40.9999C26.0654 41.4742 26.2058 41.9379 26.4689 42.3325L39.3347 61.6313C40.2856 63.0577 42.3815 63.0577 43.3326 61.6313L56.1984 42.3325C56.4615 41.9379 56.6019 41.4742 56.6019 40.9999C56.6019 40.5257 56.4615 40.062 56.1984 39.6674L43.3326 20.3685C42.3815 18.9422 40.2857 18.9422 39.3347 20.3685Z" fill="#76E5F6"/>
<path d="M41.334 44.1031L41.334 62.7012C42.0957 62.7012 42.8574 62.3447 43.3329 61.6315L56.1987 42.3327C56.4431 41.9657 56.5815 41.5383 56.5986 41.0977L41.805 44.0564C41.6497 44.0875 41.4917 44.1031 41.334 44.1031Z" fill="#2EBEEF"/>
<path d="M41.3342 19.2988C40.5725 19.2988 39.8108 19.6553 39.3352 20.3685L26.4694 39.6673C26.1882 40.0898 26.0482 40.5906 26.0695 41.0977L40.863 44.0564C41.0181 44.0874 41.1759 44.103 41.3342 44.103L41.3342 19.2988Z" fill="#C2F4FB"/>
</g>
<defs>
<clipPath id="clip0_1071_6302">
<rect width="82" height="82" fill="white" transform="translate(0.333984)"/>
</clipPath>
</defs>
</svg>
